<svg width="56" height="16" viewBox="0 0 56 16" fill="none" xmlns="http://www.w3.org/2000/svg">
<path d="M6.18 15.28C5.1 15.28 4.14667 15.0867 3.32 14.7C2.49333 14.3133 1.84667 13.76 1.38 13.04C0.913333 12.32 0.68 11.4533 0.68 10.44V9.88H3.28V10.44C3.28 11.28 3.54 11.9133 4.06 12.34C4.58 12.7533 5.28667 12.96 6.18 12.96C7.08667 12.96 7.76 12.78 8.2 12.42C8.65333 12.06 8.88 11.6 8.88 11.04C8.88 10.6533 8.76667 10.34 8.54 10.1C8.32667 9.86 8.00667 9.66667 7.58 9.52C7.16667 9.36 6.66 9.21333 6.06 9.08L5.6 8.98C4.64 8.76667 3.81333 8.5 3.12 8.18C2.44 7.84667 1.91333 7.41333 1.54 6.88C1.18 6.34667 1 5.65333 1 4.8C1 3.94667 1.2 3.22 1.6 2.62C2.01333 2.00667 2.58667 1.54 3.32 1.22C4.06667 0.886666 4.94 0.719999 5.94 0.719999C6.94 0.719999 7.82667 0.893333 8.6 1.24C9.38667 1.57333 10 2.08 10.44 2.76C10.8933 3.42667 11.12 4.26667 11.12 5.28V5.88H8.52V5.28C8.52 4.74667 8.41333 4.32 8.2 4C8 3.66667 7.70667 3.42667 7.32 3.28C6.93333 3.12 6.47333 3.04 5.94 3.04C5.14 3.04 4.54667 3.19333 4.16 3.5C3.78667 3.79333 3.6 4.2 3.6 4.72C3.6 5.06667 3.68667 5.36 3.86 5.6C4.04667 5.84 4.32 6.04 4.68 6.2C5.04 6.36 5.5 6.5 6.06 6.62L6.52 6.72C7.52 6.93333 8.38667 7.20667 9.12 7.54C9.86667 7.87333 10.4467 8.31333 10.86 8.86C11.2733 9.40667 11.48 10.1067 11.48 10.96C11.48 11.8133 11.26 12.5667 10.82 13.22C10.3933 13.86 9.78 14.3667 8.98 14.74C8.19333 15.1 7.26 15.28 6.18 15.28ZM13.5289 15V0.999999H16.0489V15H13.5289ZM21.9214 15.28C21.2147 15.28 20.5814 15.16 20.0214 14.92C19.4614 14.6667 19.0147 14.3067 18.6814 13.84C18.3614 13.36 18.2014 12.78 18.2014 12.1C18.2014 11.42 18.3614 10.8533 18.6814 10.4C19.0147 9.93333 19.4681 9.58667 20.0414 9.36C20.6281 9.12 21.2947 9 22.0414 9H24.7614V8.44C24.7614 7.97333 24.6147 7.59333 24.3214 7.3C24.0281 6.99333 23.5614 6.84 22.9214 6.84C22.2947 6.84 21.8281 6.98667 21.5214 7.28C21.2147 7.56 21.0147 7.92667 20.9214 8.38L18.6014 7.6C18.7614 7.09333 19.0147 6.63333 19.3614 6.22C19.7214 5.79333 20.1947 5.45333 20.7814 5.2C21.3814 4.93333 22.1081 4.8 22.9614 4.8C24.2681 4.8 25.3014 5.12667 26.0614 5.78C26.8214 6.43333 27.2014 7.38 27.2014 8.62V12.32C27.2014 12.72 27.3881 12.92 27.7614 12.92H28.5614V15H26.8814C26.3881 15 25.9814 14.88 25.6614 14.64C25.3414 14.4 25.1814 14.08 25.1814 13.68V13.66H24.8014C24.7481 13.82 24.6281 14.0333 24.4414 14.3C24.2547 14.5533 23.9614 14.78 23.5614 14.98C23.1614 15.18 22.6147 15.28 21.9214 15.28ZM22.3614 13.24C23.0681 13.24 23.6414 13.0467 24.0814 12.66C24.5347 12.26 24.7614 11.7333 24.7614 11.08V10.88H22.2214C21.7547 10.88 21.3881 10.98 21.1214 11.18C20.8547 11.38 20.7214 11.66 20.7214 12.02C20.7214 12.38 20.8614 12.6733 21.1414 12.9C21.4214 13.1267 21.8281 13.24 22.3614 13.24ZM33.4813 15C32.8279 15 32.2946 14.8 31.8813 14.4C31.4813 13.9867 31.2813 13.44 31.2813 12.76V7.16H28.8013V5.08H31.2813V2H33.8013V5.08H36.5213V7.16H33.8013V12.32C33.8013 12.72 33.9879 12.92 34.3613 12.92H36.2813V15H33.4813ZM42.9708 15.28C41.9841 15.28 41.1108 15.0733 40.3508 14.66C39.6041 14.2333 39.0174 13.64 38.5908 12.88C38.1774 12.1067 37.9708 11.2 37.9708 10.16V9.92C37.9708 8.88 38.1774 7.98 38.5908 7.22C39.0041 6.44667 39.5841 5.85333 40.3308 5.44C41.0774 5.01333 41.9441 4.8 42.9308 4.8C43.9041 4.8 44.7508 5.02 45.4708 5.46C46.1908 5.88667 46.7508 6.48667 47.1508 7.26C47.5508 8.02 47.7508 8.90667 47.7508 9.92V10.78H40.5308C40.5574 11.46 40.8108 12.0133 41.2908 12.44C41.7708 12.8667 42.3574 13.08 43.0508 13.08C43.7574 13.08 44.2774 12.9267 44.6108 12.62C44.9441 12.3133 45.1974 11.9733 45.3708 11.6L47.4308 12.68C47.2441 13.0267 46.9708 13.4067 46.6108 13.82C46.2641 14.22 45.7974 14.5667 45.2108 14.86C44.6241 15.14 43.8774 15.28 42.9708 15.28ZM40.5508 8.9H45.1908C45.1374 8.32667 44.9041 7.86667 44.4908 7.52C44.0908 7.17333 43.5641 7 42.9108 7C42.2308 7 41.6908 7.17333 41.2908 7.52C40.8908 7.86667 40.6441 8.32667 40.5508 8.9ZM49.9938 15V5.08H52.4738V6.2H52.8338C52.9804 5.8 53.2204 5.50667 53.5538 5.32C53.9004 5.13333 54.3004 5.04 54.7538 5.04H55.9538V7.28H54.7138C54.0738 7.28 53.5471 7.45333 53.1338 7.8C52.7204 8.13333 52.5138 8.65333 52.5138 9.36V15H49.9938Z" fill="black"/>
</svg>
