<svg width="1440" height="878" viewBox="0 0 1440 878" fill="none" xmlns="http://www.w3.org/2000/svg">
<g clip-path="url(#clip0_789_767)">
<g opacity="0.1">
<rect x="5" y="-0.999878" width="1658" height="2" fill="#E0E0E0"/>
<rect x="5" y="64.0001" width="1658" height="2" fill="#E0E0E0"/>
<rect x="5" y="129" width="1658" height="2" fill="#E0E0E0"/>
<rect x="5" y="194" width="1658" height="2" fill="#E0E0E0"/>
<rect x="5" y="259" width="1658" height="2" fill="#E0E0E0"/>
<rect x="5" y="324" width="1658" height="2" fill="#E0E0E0"/>
<rect x="5" y="389" width="1658" height="2" fill="#E0E0E0"/>
<rect x="5" y="454" width="1658" height="2" fill="#E0E0E0"/>
<rect x="5" y="519" width="1658" height="2" fill="#E0E0E0"/>
<rect x="5" y="584" width="1658" height="2" fill="#E0E0E0"/>
<rect x="5" y="649" width="1658" height="2" fill="#E0E0E0"/>
<rect x="5" y="714" width="1658" height="2" fill="#E0E0E0"/>
<rect x="5" y="779" width="1658" height="2" fill="#E0E0E0"/>
<rect x="5" y="844" width="1658" height="2" fill="#E0E0E0"/>
</g>
<g opacity="0.1">
<rect y="1658" width="1658" height="2" transform="rotate(-90 0 1658)" fill="#E0E0E0"/>
<rect x="65" y="1658" width="1658" height="2" transform="rotate(-90 65 1658)" fill="#E0E0E0"/>
<rect x="130" y="1658" width="1658" height="2" transform="rotate(-90 130 1658)" fill="#E0E0E0"/>
<rect x="195" y="1658" width="1658" height="2" transform="rotate(-90 195 1658)" fill="#E0E0E0"/>
<rect x="260" y="1658" width="1658" height="2" transform="rotate(-90 260 1658)" fill="#E0E0E0"/>
<rect x="325" y="1658" width="1658" height="2" transform="rotate(-90 325 1658)" fill="#E0E0E0"/>
<rect x="390" y="1658" width="1658" height="2" transform="rotate(-90 390 1658)" fill="#E0E0E0"/>
<rect x="455" y="1658" width="1658" height="2" transform="rotate(-90 455 1658)" fill="#E0E0E0"/>
<rect x="520" y="1658" width="1658" height="2" transform="rotate(-90 520 1658)" fill="#E0E0E0"/>
<rect x="585" y="1658" width="1658" height="2" transform="rotate(-90 585 1658)" fill="#E0E0E0"/>
<rect x="650" y="1658" width="1658" height="2" transform="rotate(-90 650 1658)" fill="#E0E0E0"/>
<rect x="715" y="1658" width="1658" height="2" transform="rotate(-90 715 1658)" fill="#E0E0E0"/>
<rect x="780" y="1658" width="1658" height="2" transform="rotate(-90 780 1658)" fill="#E0E0E0"/>
<rect x="845" y="1658" width="1658" height="2" transform="rotate(-90 845 1658)" fill="#E0E0E0"/>
<rect x="910" y="1658" width="1658" height="2" transform="rotate(-90 910 1658)" fill="#E0E0E0"/>
<rect x="975" y="1658" width="1658" height="2" transform="rotate(-90 975 1658)" fill="#E0E0E0"/>
<rect x="1040" y="1658" width="1658" height="2" transform="rotate(-90 1040 1658)" fill="#E0E0E0"/>
<rect x="1105" y="1658" width="1658" height="2" transform="rotate(-90 1105 1658)" fill="#E0E0E0"/>
<rect x="1170" y="1658" width="1658" height="2" transform="rotate(-90 1170 1658)" fill="#E0E0E0"/>
<rect x="1235" y="1658" width="1658" height="2" transform="rotate(-90 1235 1658)" fill="#E0E0E0"/>
<rect x="1300" y="1658" width="1658" height="2" transform="rotate(-90 1300 1658)" fill="#E0E0E0"/>
</g>
</g>
<defs>
<clipPath id="clip0_789_767">
<rect width="1440" height="878" fill="white"/>
</clipPath>
</defs>
</svg>
