<svg width="128" height="29" viewBox="0 0 128 29" fill="none" xmlns="http://www.w3.org/2000/svg">
<path d="M8.34964 21.9677C6.88323 21.9677 5.56322 21.716 4.38722 21.2102C3.21121 20.7045 2.24161 19.983 1.48081 19.0434C0.720006 18.1038 0.225601 16.9868 0 15.6949L3.09121 15.2275C3.40322 16.4739 4.05602 17.4446 5.04722 18.1374C6.04082 18.8301 7.19763 19.1776 8.52244 19.1776C9.34564 19.1776 10.1016 19.0482 10.7905 18.7869C11.4817 18.5281 12.036 18.1541 12.456 17.6676C12.8761 17.181 13.0873 16.5985 13.0873 15.9178C13.0873 15.5487 13.0225 15.2227 12.8953 14.9398C12.7681 14.657 12.5929 14.4077 12.3697 14.1968C12.1465 13.9834 11.8777 13.8013 11.5609 13.6455C11.2441 13.4897 10.896 13.3554 10.5192 13.2428L5.28722 11.6992C4.77602 11.5481 4.25762 11.3516 3.72722 11.1119C3.19681 10.8722 2.71441 10.5558 2.27281 10.1627C1.83361 9.77201 1.47601 9.28543 1.20241 8.70297C0.928806 8.12291 0.792008 7.41581 0.792008 6.58647C0.792008 5.33047 1.11601 4.26622 1.76401 3.39373C2.41201 2.52124 3.28801 1.85969 4.39442 1.41146C5.50082 0.963228 6.73923 0.737915 8.10964 0.737915C9.48964 0.757091 10.7256 1.00158 11.8177 1.47378C12.9097 1.94598 13.8169 2.62431 14.5393 3.50639C15.2617 4.38847 15.7609 5.4575 16.0345 6.7135L12.8593 7.25282C12.7177 6.48819 12.4153 5.82903 11.9521 5.27773C11.4889 4.72643 10.9225 4.29978 10.2504 4.00256C9.57844 3.70534 8.85124 3.55193 8.06644 3.54234C7.31043 3.52317 6.61683 3.63582 5.98803 3.88271C5.35923 4.1272 4.85762 4.47236 4.48562 4.91579C4.11122 5.35923 3.92642 5.86978 3.92642 6.44505C3.92642 7.02031 4.09202 7.46854 4.42322 7.8185C4.75443 8.16845 5.16242 8.4441 5.64963 8.64784C6.13683 8.85158 6.62163 9.01937 7.10403 9.1512L10.8768 10.213C11.3496 10.3449 11.8848 10.5223 12.4873 10.7452C13.0873 10.9681 13.6681 11.2773 14.2321 11.6728C14.7937 12.0683 15.2593 12.5956 15.6289 13.2524C15.9985 13.9091 16.1809 14.7313 16.1809 15.7236C16.1809 16.716 15.9721 17.658 15.5569 18.437C15.1417 19.216 14.5705 19.8679 13.8481 20.3905C13.1257 20.9154 12.2905 21.3085 11.3449 21.5722C10.3992 21.8358 9.40084 21.9677 8.35204 21.9677H8.34964Z" fill="#1D1E1B"/>
<path d="M18.6309 21.5434V0.723541H21.5949V21.5434H18.6309Z" fill="#1D1E1B"/>
<path d="M29.3233 21.9677C28.1881 21.9677 27.2377 21.7568 26.4721 21.3373C25.7065 20.9179 25.1281 20.3594 24.7345 19.6666C24.3433 18.9715 24.1465 18.2093 24.1465 17.38C24.1465 16.6057 24.2833 15.925 24.5569 15.3402C24.8305 14.7553 25.2385 14.2567 25.7761 13.8469C26.3161 13.437 26.9761 13.1038 27.7609 12.8473C28.4425 12.6484 29.2129 12.4734 30.0721 12.3224C30.9313 12.1714 31.8385 12.03 32.7865 11.8981C33.7369 11.7663 34.6801 11.6345 35.6161 11.5026L34.5385 12.0971C34.5577 10.8986 34.3057 10.007 33.7801 9.42689C33.2545 8.84683 32.3545 8.5568 31.0777 8.5568C30.2737 8.5568 29.5369 8.74376 28.8649 9.11529C28.1929 9.48921 27.7249 10.1052 27.4609 10.9633L24.6961 10.1148C25.0729 8.80368 25.7953 7.75862 26.8585 6.9844C27.9217 6.21019 29.3377 5.82428 31.1065 5.82428C32.4769 5.82428 33.6697 6.05678 34.6873 6.52419C35.7025 6.99159 36.4489 7.72985 36.9217 8.74136C37.1665 9.24233 37.3177 9.76965 37.3753 10.3281C37.4329 10.8842 37.4593 11.4859 37.4593 12.1259V21.5435H34.8361V18.0463L35.3473 18.4993C34.7137 19.6714 33.9073 20.5415 32.9305 21.112C31.9513 21.6825 30.7489 21.9677 29.3209 21.9677H29.3233ZM29.8489 19.5468C30.6913 19.5468 31.4137 19.3982 32.0185 19.101C32.6233 18.8037 33.1105 18.4226 33.4801 17.96C33.8497 17.4974 34.0897 17.0156 34.2025 16.5147C34.3633 16.0616 34.4545 15.5511 34.4785 14.9854C34.5025 14.4197 34.5145 13.9667 34.5145 13.6263L35.4793 13.9811C34.5433 14.1225 33.6937 14.2495 32.9257 14.3622C32.1577 14.4749 31.4665 14.5875 30.8473 14.6954C30.2281 14.8032 29.6785 14.9351 29.1961 15.0837C28.7905 15.2251 28.4281 15.3953 28.1113 15.5942C27.7945 15.7932 27.5449 16.0329 27.3601 16.3157C27.1753 16.5986 27.0841 16.9437 27.0841 17.3488C27.0841 17.7539 27.1825 18.111 27.3817 18.4466C27.5809 18.7822 27.8833 19.0482 28.2889 19.2472C28.6945 19.4461 29.2153 19.5444 29.8489 19.5444V19.5468Z" fill="#1D1E1B"/>
<path d="M49.0641 8.62628V6.24611H44.5113V1.99872H41.5329V6.24851H38.5977V8.62867H41.5329V15.5247C41.5329 16.3564 41.5449 17.0995 41.5689 17.7562C41.5929 18.413 41.7705 19.0578 42.1017 19.6906C42.4713 20.3977 43.0185 20.9178 43.7457 21.2486C44.4729 21.5794 45.3009 21.7591 46.2273 21.7855C47.1537 21.8143 48.0993 21.7328 49.0641 21.5458V19.0386C48.0609 19.18 47.1897 19.2112 46.4481 19.1297C45.7065 19.0506 45.1641 18.7174 44.8233 18.1302C44.6433 17.8186 44.5473 17.4351 44.5329 16.982C44.5185 16.529 44.5113 15.9945 44.5113 15.3809V8.62628H49.0641Z" fill="#1D1E1B"/>
<path d="M62.9876 14.7313H64.4612C64.574 12.9001 64.3604 11.3181 63.8156 9.98778C63.2708 8.65747 62.4524 7.62918 61.3556 6.9077C60.2588 6.18622 58.9316 5.82428 57.3716 5.82428C55.8116 5.82428 54.5684 6.15985 53.4428 6.831C52.3172 7.50214 51.4411 8.45133 50.8123 9.67857C50.1835 10.9058 49.8691 12.356 49.8691 14.0266C49.8691 15.6038 50.1883 16.9893 50.8267 18.1829C51.4651 19.3766 52.3579 20.3066 53.5075 20.973C54.6572 21.6393 55.9916 21.9725 57.5132 21.9725C59.0348 21.9725 60.3452 21.5962 61.5548 20.8459C62.7644 20.0957 63.6668 19.0363 64.2644 17.6652L61.358 16.7448C60.9788 17.5286 60.4532 18.1302 59.7764 18.5497C59.0996 18.9691 58.298 19.1801 57.3716 19.1801C55.9628 19.1801 54.8852 18.7199 54.1388 17.7994C53.522 17.0396 53.1644 16.0137 53.0564 14.7337H62.9876V14.7313ZM54.1388 9.84636C54.8852 8.91155 56.0012 8.44414 57.4844 8.44414C58.826 8.44414 59.8268 8.8684 60.4844 9.71932C60.9788 10.3593 61.2932 11.2606 61.4252 12.4255H53.1236C53.2796 11.3636 53.6156 10.5031 54.1388 9.84875V9.84636Z" fill="#1D1E1B"/>
<path d="M66.7871 21.5434V6.24612H69.4247V9.9566L69.0551 9.47481C69.2447 8.98344 69.4895 8.53281 69.7919 8.12293C70.0943 7.71305 70.4447 7.37508 70.8407 7.11142C71.2271 6.82858 71.6615 6.60806 72.1391 6.45226C72.6167 6.29646 73.1063 6.20298 73.6079 6.16942C74.1095 6.13586 74.5919 6.16223 75.0551 6.24612V9.02179C74.5535 8.88996 73.9991 8.8516 73.3895 8.90913C72.7799 8.96666 72.2207 9.15841 71.7095 9.48919C71.2271 9.8008 70.8479 10.1795 70.5671 10.6229C70.2887 11.0664 70.0871 11.5602 69.9647 12.1019C69.8423 12.646 69.7799 13.2188 69.7799 13.8229V21.541H66.7871V21.5434Z" fill="#1D1E1B"/>
<path d="M75.2051 21.4763V18.3459H78.3395V21.4763H75.2051Z" fill="#1D1E1B"/>
<path d="M86.296 21.903C85.1608 21.903 84.2104 21.692 83.4448 21.2726C82.6791 20.8531 82.1007 20.2946 81.7071 19.6019C81.3159 18.9068 81.1191 18.1445 81.1191 17.3152C81.1191 16.541 81.2559 15.8603 81.5295 15.2754C81.8031 14.6905 82.2111 14.192 82.7487 13.7821C83.2887 13.3722 83.9488 13.039 84.7336 12.7826C85.4152 12.5836 86.1856 12.4087 87.0448 12.2576C87.904 12.1066 88.8112 11.9652 89.7592 11.8334C90.7096 11.7016 91.6528 11.5697 92.5888 11.4379L91.5112 12.0323C91.5304 10.8339 91.2784 9.94219 90.7528 9.36213C90.2272 8.78207 89.3272 8.49204 88.0504 8.49204C87.2464 8.49204 86.5096 8.679 85.8376 9.05053C85.1656 9.42445 84.6976 10.0405 84.4336 10.8986L81.6687 10.0501C82.0455 8.73893 82.7679 7.69386 83.8311 6.91964C84.8944 6.14543 86.3104 5.75952 88.0792 5.75952C89.4496 5.75952 90.6424 5.99203 91.66 6.45943C92.6752 6.92684 93.4216 7.66509 93.8944 8.67661C94.1392 9.17757 94.2904 9.7049 94.348 10.2634C94.4056 10.8195 94.432 11.4211 94.432 12.0611V21.4787H91.8088V17.9816L92.32 18.4346C91.6864 19.6067 90.88 20.4768 89.9032 21.0472C88.924 21.6177 87.7216 21.903 86.2936 21.903H86.296ZM86.8216 19.482C87.664 19.482 88.3864 19.3334 88.9912 19.0362C89.596 18.739 90.0832 18.3579 90.4528 17.8953C90.8224 17.4327 91.0624 16.9509 91.1752 16.4499C91.336 15.9969 91.4272 15.4863 91.4512 14.9207C91.4752 14.355 91.4872 13.9019 91.4872 13.5616L92.452 13.9163C91.516 14.0578 90.6664 14.1848 89.8984 14.2974C89.1328 14.4101 88.4392 14.5228 87.82 14.6306C87.2008 14.7385 86.6512 14.8703 86.1688 15.0189C85.7632 15.1603 85.4007 15.3305 85.0839 15.5295C84.7671 15.7284 84.5176 15.9681 84.3328 16.251C84.148 16.5338 84.0568 16.879 84.0568 17.284C84.0568 17.6891 84.1551 18.0463 84.3543 18.3818C84.5536 18.7174 84.856 18.9835 85.2616 19.1824C85.6672 19.3814 86.188 19.4796 86.8216 19.4796V19.482Z" fill="#1D1E1B"/>
<path d="M97.2559 28.2765V6.1814H99.8935V17.1858H100.234V28.2741H97.2559V28.2765ZM104.461 21.903C102.994 21.903 101.765 21.5458 100.774 20.8339C99.7831 20.122 99.0295 19.1561 98.5207 17.9384C98.0095 16.7208 97.7551 15.3473 97.7551 13.8181C97.7551 12.2888 98.0071 10.9154 98.5135 9.69772C99.0199 8.48007 99.7663 7.51889 100.755 6.81659C101.744 6.11428 102.961 5.76193 104.408 5.76193C105.855 5.76193 107.086 6.11428 108.13 6.81659C109.174 7.51889 109.981 8.47767 110.547 9.69053C111.114 10.9034 111.399 12.2792 111.399 13.8181C111.399 15.3569 111.118 16.7232 110.554 17.9456C109.993 19.1681 109.194 20.134 108.157 20.8411C107.122 21.5482 105.891 21.903 104.463 21.903H104.461ZM104.05 19.2256C104.996 19.2256 105.778 18.9859 106.398 18.5041C107.017 18.0223 107.48 17.3727 107.787 16.5578C108.094 15.7404 108.248 14.8272 108.248 13.8181C108.248 12.809 108.094 11.9101 107.787 11.0999C107.48 10.2874 107.01 9.64019 106.376 9.1608C105.742 8.67902 104.933 8.43932 103.952 8.43932C103.025 8.43932 102.262 8.66703 101.662 9.12005C101.062 9.57308 100.618 10.2059 100.33 11.0184C100.042 11.831 99.8983 12.7658 99.8983 13.8229C99.8983 14.8799 100.04 15.8147 100.323 16.6273C100.606 17.4399 101.055 18.0774 101.669 18.5401C102.284 19.0027 103.078 19.2328 104.053 19.2328L104.05 19.2256Z" fill="#1D1E1B"/>
<path d="M113.648 28.2765V6.1814H116.286V17.1858H116.627V28.2741H113.648V28.2765ZM120.853 21.903C119.387 21.903 118.158 21.5458 117.167 20.8339C116.173 20.122 115.422 19.1561 114.913 17.9384C114.402 16.7208 114.148 15.3473 114.148 13.8181C114.148 12.2888 114.4 10.9154 114.906 9.69772C115.412 8.48007 116.159 7.51889 117.148 6.81659C118.136 6.11428 119.353 5.76193 120.8 5.76193C122.248 5.76193 123.479 6.11428 124.523 6.81659C125.567 7.51889 126.373 8.47767 126.94 9.69053C127.506 10.9034 127.792 12.2792 127.792 13.8181C127.792 15.3569 127.511 16.7232 126.947 17.9456C126.385 19.1681 125.586 20.134 124.549 20.8411C123.515 21.5482 122.284 21.903 120.856 21.903H120.853ZM120.443 19.2256C121.388 19.2256 122.171 18.9859 122.79 18.5041C123.409 18.0223 123.872 17.3727 124.18 16.5578C124.487 15.7404 124.64 14.8272 124.64 13.8181C124.64 12.809 124.487 11.9101 124.18 11.0999C123.872 10.2874 123.402 9.64019 122.768 9.1608C122.135 8.67902 121.326 8.43932 120.344 8.43932C119.418 8.43932 118.655 8.66703 118.055 9.12005C117.455 9.57308 117.011 10.2059 116.723 11.0184C116.435 11.831 116.291 12.7658 116.291 13.8229C116.291 14.8799 116.432 15.8147 116.716 16.6273C116.999 17.4399 117.448 18.0774 118.062 18.5401C118.676 19.0027 119.471 19.2328 120.445 19.2328L120.443 19.2256Z" fill="#1D1E1B"/>
</svg>
