<svg width="294" height="286" viewBox="0 0 294 286" fill="none" xmlns="http://www.w3.org/2000/svg">
<path d="M27.4492 143.19C27.4492 168.365 35.2545 191.725 48.5564 211.019C56.5266 222.562 66.5305 232.676 77.9636 240.811C80.602 242.68 83.2953 244.438 86.0986 246.087C92.5847 249.935 99.5105 253.233 106.766 255.817C119.353 260.324 132.875 262.742 147.002 262.742C166.735 262.742 185.313 257.96 201.748 249.495C222.966 238.557 240.445 221.462 251.878 200.575C261.222 183.535 266.499 164.022 266.499 143.245C266.499 106.637 250.064 73.8769 224.12 51.9452C203.288 34.3009 176.354 23.6924 146.947 23.6924C80.9318 23.6924 27.4492 77.2299 27.4492 143.19Z" stroke="#1D1E1B" stroke-width="2.05306" stroke-miterlimit="10" stroke-linecap="round" stroke-linejoin="round"/>
<path d="M71.0371 143.19C71.0371 159.185 75.9841 174.026 84.449 186.284C89.5059 193.649 95.8271 200.025 103.138 205.192C104.787 206.402 106.546 207.501 108.305 208.545C112.427 211.019 116.824 213.053 121.442 214.702C129.412 217.56 138.041 219.099 147.001 219.099C159.533 219.099 171.351 216.076 181.74 210.689C195.207 203.763 206.31 192.88 213.621 179.633C219.557 168.804 222.91 156.382 222.91 143.19C222.91 119.939 212.466 99.1617 195.976 85.2001C182.729 73.9869 165.635 67.281 146.946 67.281C105.061 67.281 71.0371 101.305 71.0371 143.19Z" stroke="#1D1E1B" stroke-width="2.05306" stroke-miterlimit="10" stroke-linecap="round" stroke-linejoin="round"/>
<path d="M116.439 138.353C116.165 139.947 116.055 141.541 116.055 143.19C116.055 148.357 117.319 153.194 119.573 157.481C122.156 162.373 126.004 166.496 130.676 169.409C135.403 172.377 141.01 174.081 147.001 174.081C158.269 174.081 168.163 168.035 173.55 158.965" stroke="#1D1E1B" stroke-width="2.05306" stroke-miterlimit="10" stroke-linecap="round" stroke-linejoin="round"/>
<path d="M119.189 129.668C118.639 130.767 118.199 131.867 117.76 133.021" stroke="#1D1E1B" stroke-width="2.05306" stroke-miterlimit="10" stroke-linecap="round" stroke-linejoin="round"/>
<path d="M169.537 122.138C167.008 119.444 164.04 117.246 160.742 115.597C156.62 113.508 151.893 112.354 146.946 112.354C136.832 112.354 127.872 117.191 122.266 124.666" stroke="#1D1E1B" stroke-width="2.05306" stroke-miterlimit="10" stroke-linecap="round" stroke-linejoin="round"/>
<path d="M146.947 188.262C155.577 188.262 163.602 185.844 170.473 181.612C176.904 177.654 182.291 172.102 186.084 165.506C189.876 158.91 192.02 151.325 192.02 143.19" stroke="#1D1E1B" stroke-width="2.05306" stroke-miterlimit="10" stroke-linecap="round" stroke-linejoin="round"/>
<path d="M110.834 170.124C111.604 171.113 112.373 172.102 113.198 173.037C116.276 176.555 119.903 179.578 123.971 181.996" stroke="#1D1E1B" stroke-width="2.05306" stroke-miterlimit="10" stroke-linecap="round" stroke-linejoin="round"/>
<path d="M104.127 157.151C104.457 158.251 104.842 159.295 105.281 160.339" stroke="#1D1E1B" stroke-width="2.05306" stroke-miterlimit="10" stroke-linecap="round" stroke-linejoin="round"/>
<path d="M117.044 109.55C114.735 111.639 112.646 113.893 110.777 116.421C105.226 123.897 101.928 133.186 101.928 143.245C101.928 146.378 102.258 149.401 102.862 152.314" stroke="#1D1E1B" stroke-width="2.05306" stroke-miterlimit="10" stroke-linecap="round" stroke-linejoin="round"/>
<path d="M130.566 101.25C128.697 101.965 126.938 102.789 125.234 103.779" stroke="#1D1E1B" stroke-width="2.05306" stroke-miterlimit="10" stroke-linecap="round" stroke-linejoin="round"/>
<path d="M180.972 113.673C178.663 111.034 176.08 108.616 173.166 106.582C165.801 101.305 156.731 98.1721 146.947 98.1721" stroke="#1D1E1B" stroke-width="2.05306" stroke-miterlimit="10" stroke-linecap="round" stroke-linejoin="round"/>
<path d="M185.093 98.0622C174.815 89.3775 161.513 84.1007 146.947 84.1007C114.351 84.1007 87.8574 110.595 87.8574 143.19C87.8574 155.667 91.7051 167.21 98.3011 176.72C102.259 182.436 107.151 187.438 112.867 191.451C114.186 192.385 115.506 193.264 116.88 194.034C120.123 195.958 123.531 197.552 127.104 198.816C133.315 201.015 140.021 202.224 147.002 202.224C156.731 202.224 165.965 199.86 174.045 195.683C184.544 190.296 193.174 181.831 198.835 171.498C203.452 163.088 206.091 153.414 206.091 143.135" stroke="#1D1E1B" stroke-width="2.05306" stroke-miterlimit="10" stroke-linecap="round" stroke-linejoin="round"/>
<path d="M163.822 143.19C163.822 147.092 166.955 150.226 170.858 150.226C174.761 150.226 177.894 147.092 177.894 143.19" stroke="#1D1E1B" stroke-width="2.05306" stroke-miterlimit="10" stroke-linecap="round" stroke-linejoin="round"/>
<path d="M156.895 129.338C159.313 132.416 163.82 132.911 166.843 130.438C169.922 128.019 170.416 123.567 167.943 120.489" stroke="#1D1E1B" stroke-width="2.05306" stroke-miterlimit="10" stroke-linecap="round" stroke-linejoin="round"/>
<path d="M167.943 120.489C170.362 123.567 174.869 124.062 177.892 121.588C180.97 119.169 181.465 114.717 178.992 111.639" stroke="#1D1E1B" stroke-width="2.05306" stroke-miterlimit="10" stroke-linecap="round" stroke-linejoin="round"/>
<path d="M179.047 111.694C181.465 114.772 185.973 115.267 188.996 112.793C192.074 110.375 192.569 105.922 190.095 102.844" stroke="#1D1E1B" stroke-width="2.05306" stroke-miterlimit="10" stroke-linecap="round" stroke-linejoin="round"/>
<path d="M177.838 143.19C177.838 147.092 180.971 150.226 184.874 150.226C188.776 150.226 191.909 147.092 191.909 143.19" stroke="#1D1E1B" stroke-width="2.05306" stroke-miterlimit="10" stroke-linecap="round" stroke-linejoin="round"/>
<path d="M192.02 143.19C192.02 147.092 195.153 150.226 199.055 150.226C202.958 150.226 206.091 147.092 206.091 143.19" stroke="#1D1E1B" stroke-width="2.05306" stroke-miterlimit="10" stroke-linecap="round" stroke-linejoin="round"/>
<path d="M149.859 126.59C152.718 127.085 155.356 128.294 157.5 130.053" stroke="#1D1E1B" stroke-width="2.05306" stroke-miterlimit="10" stroke-linecap="round" stroke-linejoin="round"/>
<path d="M141.67 159.24C134.909 157.042 130.072 150.665 130.072 143.19C130.072 133.901 137.603 126.315 146.947 126.315" stroke="#1D1E1B" stroke-width="2.05306" stroke-miterlimit="10" stroke-linecap="round" stroke-linejoin="round"/>
<path d="M163.822 143.19C163.822 152.479 156.292 160.065 146.947 160.065" stroke="#1D1E1B" stroke-width="2.05306" stroke-miterlimit="10" stroke-linecap="round" stroke-linejoin="round"/>
<path d="M90.2776 75.1961C89.3432 75.9657 88.3538 76.5153 87.3644 76.8451C86.375 77.1749 85.3306 77.2299 84.3412 77.01C83.3518 76.8451 82.4723 76.3504 81.5929 75.6908L83.2968 73.767C84.1763 74.3716 85.1107 74.6464 86.1001 74.5915C87.0895 74.4815 88.024 74.0968 88.8485 73.3822C89.3432 72.9425 89.7829 72.4478 90.0577 71.9531C90.3326 71.4034 90.4975 70.9087 90.4975 70.3591C90.4975 69.8094 90.3326 69.3696 89.9478 68.9299C89.7279 68.71 89.563 68.5452 89.2882 68.4352C89.0683 68.3253 88.7935 68.2703 88.5736 68.2154C88.2988 68.2154 88.024 68.2154 87.7491 68.2703C87.4743 68.3253 87.1995 68.4352 86.8697 68.5452L82.7472 70.3591C82.3624 70.524 81.9227 70.6888 81.428 70.7988C80.9882 70.9087 80.4935 70.9637 79.9988 70.9637C79.5041 70.9637 79.0094 70.8538 78.5697 70.6339C78.075 70.414 77.6353 70.0293 77.1955 69.5346C76.5359 68.7101 76.1512 67.8855 76.0962 67.0061C76.0412 66.1266 76.2611 65.2472 76.7008 64.3677C77.1406 63.4882 77.8551 62.7187 78.6796 61.9492C79.5591 61.2346 80.4935 60.7399 81.428 60.4651C82.3624 60.1902 83.2968 60.1353 84.2312 60.3002C85.1657 60.4651 86.0452 60.9048 86.8697 61.5644L85.1657 63.5982C84.671 63.2134 84.1213 62.9386 83.5167 62.8286C82.9121 62.7187 82.3624 62.7737 81.7578 62.9386C81.1531 63.1035 80.6035 63.3783 80.1088 63.818C79.6141 64.2028 79.2293 64.6425 78.9545 65.1372C78.6796 65.6319 78.5697 66.1266 78.5697 66.5664C78.5697 67.0061 78.7346 67.4458 79.0094 67.8306C79.2843 68.2153 79.669 68.3803 80.0538 68.4352C80.4386 68.4902 80.8783 68.4352 81.2631 68.3253C81.6478 68.2154 82.0876 68.0505 82.4723 67.8856L85.4405 66.5664C85.8253 66.4015 86.265 66.2366 86.7597 66.0717C87.2544 65.9068 87.8041 65.7968 88.3538 65.7419C88.9034 65.6869 89.5081 65.7968 90.0577 66.0167C90.6624 66.2366 91.212 66.6763 91.7067 67.2809C92.2564 67.9405 92.5862 68.6001 92.7511 69.3147C92.916 70.0293 92.861 70.7438 92.6961 71.4584C92.5312 72.173 92.2014 72.8875 91.7617 73.5471C91.5418 73.9869 90.9372 74.6465 90.2776 75.1961Z" fill="#1D1E1B"/>
<path d="M99.3468 68.1055L90.2773 53.4294L92.3661 52.1652L101.436 66.8413L99.3468 68.1055Z" fill="#1D1E1B"/>
<path d="M109.955 62.7737C109.075 63.1585 108.306 63.3234 107.591 63.2684C106.876 63.2135 106.272 62.9936 105.722 62.5539C105.172 62.1691 104.788 61.6195 104.513 61.0148C104.238 60.4102 104.128 59.8605 104.128 59.3108C104.128 58.7612 104.293 58.2665 104.568 57.7718C104.843 57.2771 105.227 56.7824 105.722 56.3427C106.162 55.9579 106.711 55.5731 107.316 55.1883C107.921 54.8036 108.58 54.3639 109.24 53.9791C109.9 53.5394 110.559 53.1546 111.274 52.7148L110.669 53.5393C110.284 52.6049 109.79 52.0553 109.185 51.7804C108.58 51.5056 107.811 51.6155 106.821 52.0003C106.217 52.2751 105.722 52.6599 105.337 53.1546C104.953 53.6493 104.788 54.3089 104.898 55.0235L102.534 55.2983C102.369 54.199 102.589 53.1546 103.139 52.2202C103.688 51.2857 104.623 50.5162 105.942 49.9116C106.986 49.4718 107.976 49.252 108.91 49.252C109.845 49.252 110.669 49.5818 111.329 50.1864C111.658 50.4612 111.988 50.846 112.208 51.2308C112.428 51.6155 112.648 52.0553 112.868 52.55L116.001 59.6956L114.022 60.5751L112.868 57.9367L113.417 58.1016C113.307 59.2009 113.033 60.1353 112.483 60.9049C111.823 61.6744 110.999 62.279 109.955 62.7737ZM109.515 60.74C110.174 60.4652 110.669 60.0804 110.999 59.6956C111.384 59.2559 111.604 58.8162 111.713 58.3215C111.823 57.8268 111.878 57.387 111.768 57.0023C111.713 56.6175 111.658 56.1777 111.494 55.738C111.329 55.2983 111.164 54.9685 111.054 54.6937L111.878 54.6387C111.219 55.0784 110.614 55.4632 110.064 55.793C109.515 56.1228 109.02 56.4526 108.58 56.7274C108.141 57.0023 107.756 57.2771 107.481 57.5519C107.206 57.7718 106.986 58.0466 106.821 58.3215C106.657 58.5963 106.547 58.8711 106.492 59.146C106.437 59.4208 106.492 59.6956 106.602 60.0254C106.711 60.3002 106.931 60.5751 107.206 60.74C107.481 60.9049 107.811 61.0148 108.141 61.0698C108.635 61.0698 109.075 60.9599 109.515 60.74Z" fill="#1D1E1B"/>
<path d="M116.881 48.1526L116.387 46.2287L124.742 44.0301L125.236 45.9539L116.881 48.1526ZM127.985 56.2876C127.27 56.6174 126.501 56.8923 125.786 57.0572C125.016 57.2221 124.357 57.277 123.697 57.1671C123.038 57.0572 122.488 56.7823 122.048 56.2876C121.664 55.8479 121.389 55.3532 121.224 54.8585C121.059 54.3638 120.894 53.7592 120.729 53.0996L117.871 42.2711L120.234 41.6665L123.038 52.385C123.148 52.8797 123.313 53.3194 123.367 53.6492C123.477 54.034 123.642 54.3088 123.862 54.5287C124.247 54.9135 124.742 55.0784 125.346 54.9684C125.951 54.8585 126.665 54.6936 127.435 54.3638L127.985 56.2876Z" fill="#1D1E1B"/>
<path d="M137.879 55.1333C136.614 55.2433 135.515 55.1333 134.471 54.6386C133.481 54.1989 132.657 53.4843 131.997 52.5499C131.393 51.6155 131.008 50.5161 130.843 49.1969C130.678 47.8228 130.843 46.6135 131.228 45.5142C131.613 44.4698 132.272 43.5903 133.152 42.9307C134.031 42.2711 135.075 41.8864 136.285 41.7764C137.549 41.6665 138.703 41.8314 139.638 42.3261C140.627 42.8208 141.342 43.5903 141.946 44.6347C142.496 45.6791 142.826 46.9433 142.881 48.4824L140.462 48.7572L140.352 47.8777C140.187 46.3936 139.803 45.3493 139.198 44.7446C138.593 44.085 137.714 43.8652 136.614 43.9751C135.405 44.085 134.526 44.5797 133.976 45.4042C133.426 46.2287 133.262 47.383 133.426 48.8122C133.591 50.1863 133.976 51.2307 134.691 51.9453C135.405 52.6598 136.34 52.9347 137.494 52.8247C138.263 52.7698 138.923 52.4949 139.418 52.1102C139.912 51.7254 140.297 51.1757 140.572 50.4612L143.046 50.9559C142.661 52.1102 142.001 53.0996 141.067 53.8141C140.187 54.5837 139.088 55.0234 137.879 55.1333ZM132.712 49.6367L132.492 47.7128L141.507 46.7784L141.726 48.7022L132.712 49.6367Z" fill="#1D1E1B"/>
<path d="M148.432 54.3088L149.036 41.6665L151.235 41.7764L151.07 44.8546L150.795 44.4148C150.96 44.0301 151.18 43.6453 151.455 43.3155C151.73 42.9857 152.004 42.7109 152.389 42.546C152.719 42.3261 153.104 42.1612 153.489 42.0513C153.873 41.9413 154.313 41.8864 154.698 41.8864C155.138 41.8864 155.522 41.9413 155.907 41.9963L155.797 44.3049C155.412 44.195 154.918 44.14 154.423 44.14C153.928 44.14 153.434 44.3049 152.994 44.5797C152.609 44.7996 152.279 45.1294 152.004 45.4592C151.73 45.789 151.565 46.2287 151.455 46.6685C151.345 47.1082 151.235 47.6029 151.235 48.0976L150.905 54.4737L148.432 54.3088Z" fill="#1D1E1B"/>
<path d="M158.711 55.0783L159.096 52.4949L161.679 52.8796L161.294 55.4631L158.711 55.0783Z" fill="#1D1E1B"/>
<path d="M170.584 57.8267C169.705 57.5519 168.99 57.1671 168.441 56.6724C167.946 56.1777 167.616 55.5731 167.451 54.9135C167.286 54.2539 167.341 53.5943 167.506 52.9347C167.671 52.33 167.946 51.8353 168.331 51.3956C168.66 51.0108 169.1 50.681 169.65 50.5161C170.199 50.2963 170.749 50.1863 171.464 50.1863C172.068 50.1863 172.728 50.2413 173.443 50.2963C174.157 50.3512 174.927 50.4612 175.696 50.5711C176.466 50.681 177.235 50.791 178.06 50.9009L177.07 51.1208C177.345 50.1863 177.345 49.4168 177.07 48.8122C176.795 48.2075 176.136 47.7678 175.146 47.493C174.487 47.3281 173.882 47.2731 173.278 47.438C172.673 47.6029 172.123 47.9327 171.739 48.5923L169.76 47.2731C170.364 46.3387 171.189 45.6791 172.233 45.2943C173.278 44.9095 174.487 44.9645 175.861 45.3493C176.96 45.6791 177.84 46.1188 178.554 46.7234C179.269 47.3281 179.654 48.0976 179.819 49.032C179.874 49.4718 179.874 49.9665 179.819 50.4062C179.764 50.8459 179.599 51.3406 179.489 51.8353L177.29 59.3108L175.201 58.7062L176.026 55.9029L176.301 56.3976C175.531 57.1671 174.707 57.6618 173.772 57.9366C172.728 58.2115 171.684 58.2115 170.584 57.8267ZM171.519 56.0678C172.178 56.2876 172.783 56.2876 173.333 56.2327C173.882 56.1227 174.377 55.9578 174.762 55.683C175.146 55.4082 175.476 55.0784 175.696 54.6936C175.916 54.3638 176.136 53.979 176.246 53.5393C176.356 53.0996 176.521 52.7148 176.576 52.44L177.235 52.9347C176.466 52.8247 175.751 52.7148 175.092 52.6598C174.432 52.5499 173.882 52.4949 173.388 52.44C172.893 52.385 172.398 52.33 171.958 52.385C171.629 52.385 171.299 52.44 170.969 52.5499C170.694 52.6598 170.419 52.7698 170.199 52.9347C169.98 53.0996 169.815 53.3744 169.76 53.7042C169.65 54.034 169.65 54.3088 169.76 54.6386C169.815 54.9684 170.035 55.2433 170.309 55.4631C170.639 55.683 171.024 55.9029 171.519 56.0678Z" fill="#1D1E1B"/>
<path d="M179.322 66.2916L187.512 49.9115L189.491 50.9009L185.424 59.036L185.698 59.1459L181.576 67.3359L179.322 66.2916ZM187.018 64.2578C185.918 63.7081 185.149 62.9936 184.709 62.1141C184.214 61.2346 184.049 60.2452 184.104 59.1459C184.159 58.0466 184.489 56.9472 185.094 55.7929C185.698 54.6386 186.358 53.7592 187.183 53.0446C188.007 52.33 188.941 51.8903 189.931 51.7254C190.92 51.5605 191.965 51.7804 193.009 52.2751C194.053 52.8247 194.878 53.5393 195.373 54.4188C195.867 55.3532 196.142 56.3426 196.087 57.4419C196.032 58.5413 195.757 59.6956 195.208 60.7949C194.658 61.9492 193.943 62.8287 193.064 63.5432C192.184 64.2578 191.25 64.6426 190.206 64.8075C189.106 64.9724 188.062 64.7525 187.018 64.2578ZM187.732 62.1141C188.447 62.4439 189.106 62.5538 189.711 62.4439C190.371 62.334 190.92 62.0042 191.47 61.5095C192.02 61.0148 192.459 60.4101 192.844 59.6406C193.229 58.926 193.449 58.1565 193.504 57.4419C193.559 56.7274 193.449 56.0678 193.174 55.4631C192.899 54.8585 192.349 54.4188 191.635 54.034C190.975 53.7042 190.316 53.5943 189.711 53.7042C189.106 53.8141 188.557 54.1439 188.007 54.6386C187.512 55.1333 187.018 55.7929 186.633 56.5625C186.248 57.332 185.973 58.1015 185.918 58.8161C185.863 59.5307 185.918 60.1353 186.193 60.7399C186.468 61.2896 187.018 61.7293 187.732 62.1141Z" fill="#1D1E1B"/>
<path d="M192.734 73.4372L203.783 58.816L205.542 60.1352L200.045 67.3908L200.265 67.5557L194.713 74.8663L192.734 73.4372ZM200.705 72.8325C199.715 72.118 199.111 71.2385 198.781 70.3041C198.506 69.3147 198.451 68.3253 198.726 67.2809C199.001 66.2365 199.495 65.1922 200.265 64.2028C201.034 63.2134 201.859 62.3889 202.848 61.8392C203.783 61.2895 204.772 61.0147 205.761 61.0697C206.751 61.1246 207.74 61.4544 208.675 62.224C209.609 62.9385 210.269 63.818 210.599 64.8074C210.928 65.7968 210.983 66.8412 210.763 67.9405C210.544 69.0398 210.049 70.0842 209.279 71.0736C208.51 72.063 207.63 72.8325 206.641 73.3822C205.652 73.9319 204.662 74.1517 203.618 74.0968C202.628 73.9319 201.639 73.5471 200.705 72.8325ZM201.749 70.8537C202.354 71.3484 203.013 71.5683 203.673 71.5683C204.332 71.5683 204.937 71.3484 205.542 70.9637C206.146 70.5789 206.696 70.0292 207.191 69.3696C207.685 68.71 208.07 68.0504 208.235 67.3359C208.455 66.6213 208.455 65.9617 208.29 65.3571C208.125 64.7524 207.685 64.1478 207.026 63.6531C206.421 63.2134 205.816 62.9385 205.157 62.9385C204.552 62.9385 203.948 63.1584 203.343 63.5432C202.738 63.9279 202.189 64.4776 201.639 65.1922C201.089 65.9067 200.76 66.5663 200.54 67.2809C200.32 67.9405 200.32 68.6001 200.485 69.2047C200.705 69.8094 201.144 70.359 201.749 70.8537Z" fill="#1D1E1B"/>
<path d="M227.09 104.658L239.457 98.9418C239.732 98.7769 240.062 98.667 240.337 98.5571C240.612 98.4471 240.941 98.3921 241.271 98.3921C241.601 98.3921 241.876 98.3921 242.206 98.5021C242.59 98.612 242.865 98.7769 243.14 98.9968C243.36 99.2166 243.58 99.4915 243.745 99.7663C243.91 100.041 244.075 100.316 244.184 100.646L244.844 102.13L243.525 102.735L242.92 101.36C242.645 100.756 242.316 100.371 241.876 100.206C241.436 100.041 240.941 100.096 240.282 100.426L227.749 106.252L227.09 104.658ZM236.324 97.9524L237.643 97.3478L240.722 104.054L239.402 104.658L236.324 97.9524Z" fill="#1D1E1B"/>
<path d="M230.771 113.453L242.864 109.55L243.359 111.034L240.446 111.969L240.72 111.529C241.105 111.529 241.49 111.639 241.875 111.749C242.26 111.859 242.589 112.024 242.864 112.189C243.249 112.409 243.579 112.683 243.854 113.068C244.128 113.453 244.348 113.838 244.513 114.222C244.678 114.607 244.788 115.047 244.788 115.432L243.249 115.926C243.194 115.432 243.084 114.937 242.864 114.442C242.644 113.948 242.26 113.508 241.765 113.178C241.325 112.903 240.83 112.683 240.336 112.628C239.841 112.573 239.346 112.573 238.797 112.683C238.302 112.793 237.807 112.903 237.313 113.068L231.266 114.992L230.771 113.453Z" fill="#1D1E1B"/>
<path d="M234.344 128.789C234.124 127.524 234.234 126.425 234.674 125.491C235.114 124.501 235.773 123.732 236.708 123.072C237.642 122.412 238.742 122.028 240.006 121.808C241.325 121.588 242.534 121.643 243.579 121.973C244.623 122.303 245.503 122.852 246.217 123.622C246.932 124.391 247.371 125.436 247.536 126.645C247.756 127.909 247.646 129.008 247.207 129.998C246.767 130.987 246.107 131.757 245.228 132.416C244.293 133.021 243.194 133.461 241.93 133.681C240.61 133.9 239.401 133.846 238.357 133.516C237.312 133.186 236.378 132.636 235.718 131.867C235.059 131.097 234.564 130.053 234.344 128.789ZM235.993 128.514C236.213 129.888 236.873 130.877 237.862 131.372C238.852 131.867 240.171 132.032 241.6 131.812C243.139 131.537 244.238 131.042 245.063 130.218C245.887 129.393 246.107 128.294 245.887 126.92C245.722 125.985 245.393 125.271 244.898 124.721C244.403 124.171 243.744 123.842 242.919 123.677C242.15 123.512 241.215 123.512 240.281 123.677C238.797 123.897 237.642 124.446 236.818 125.326C236.048 126.095 235.718 127.195 235.993 128.514Z" fill="#1D1E1B"/>
<path d="M235.444 154.183L243.744 154.568C244.733 154.623 245.503 154.403 246.107 153.853C246.712 153.359 246.987 152.644 247.042 151.82C247.042 151.325 246.987 150.885 246.767 150.391C246.547 149.951 246.217 149.511 245.777 149.236C245.283 148.906 244.678 148.742 243.909 148.687L244.238 147.697C245.173 147.697 245.942 147.917 246.602 148.357C247.261 148.742 247.756 149.291 248.141 150.006C248.471 150.665 248.636 151.435 248.581 152.314C248.526 153.579 248.086 154.568 247.261 155.338C246.437 156.052 245.338 156.382 244.018 156.327L235.389 155.942L235.444 154.183ZM235.773 146.598L243.963 146.983C244.953 147.038 245.777 146.818 246.382 146.268C246.987 145.718 247.316 145.059 247.371 144.179C247.426 143.3 247.152 142.585 246.547 142.036C245.997 141.486 245.173 141.156 244.183 141.101L244.788 140.112C245.612 140.167 246.327 140.387 246.932 140.771C247.536 141.211 248.031 141.706 248.361 142.42C248.691 143.135 248.855 143.849 248.801 144.729C248.746 145.553 248.581 146.268 248.196 146.873C247.811 147.477 247.316 147.972 246.602 148.302C245.942 148.632 245.118 148.796 244.183 148.742L235.609 148.357L235.773 146.598ZM236.158 139.067L248.801 139.672L248.746 141.211L245.612 141.046V141.211L236.048 140.771L236.158 139.067Z" fill="#1D1E1B"/>
<path d="M229.508 176.555L235.61 178.698C236.269 178.918 236.929 179.083 237.534 179.138C238.138 179.193 238.688 179.193 239.183 179.028C239.677 178.918 240.172 178.643 240.557 178.314C240.941 177.929 241.216 177.489 241.491 176.829C241.711 176.28 241.766 175.73 241.711 175.18C241.656 174.686 241.491 174.191 241.271 173.751C240.996 173.312 240.612 172.927 240.172 172.597C239.677 172.267 239.128 171.937 238.413 171.718L239.073 170.673C240.282 171.113 241.271 171.663 241.931 172.432C242.59 173.147 243.03 173.971 243.195 174.851C243.36 175.73 243.25 176.719 242.92 177.654C242.645 178.368 242.316 178.973 241.931 179.413C241.546 179.853 241.051 180.237 240.557 180.457C240.062 180.677 239.512 180.842 238.963 180.897C238.413 180.952 237.808 180.952 237.259 180.842C236.709 180.732 236.104 180.622 235.61 180.402L229.014 178.094L229.508 176.555ZM232.532 167.925L244.514 172.157L244.02 173.641L241.051 172.597L240.996 172.762L231.982 169.574L232.532 167.925Z" fill="#1D1E1B"/>
<path d="M223.901 187.163C224.506 186.064 225.33 185.294 226.265 184.8C227.199 184.305 228.244 184.085 229.343 184.195C230.442 184.305 231.597 184.635 232.696 185.294C233.85 185.954 234.73 186.723 235.389 187.658C236.049 188.592 236.379 189.582 236.379 190.626C236.379 191.67 236.159 192.77 235.499 193.814C234.895 194.913 234.07 195.738 233.136 196.233C232.201 196.727 231.157 196.947 230.058 196.837C228.958 196.727 227.804 196.398 226.705 195.738C225.55 195.078 224.671 194.309 224.011 193.374C223.352 192.44 223.022 191.451 222.967 190.406C222.912 189.362 223.242 188.208 223.901 187.163ZM225.33 187.988C224.616 189.197 224.506 190.351 225.001 191.396C225.495 192.44 226.375 193.374 227.639 194.089C228.958 194.859 230.222 195.133 231.322 195.023C232.421 194.913 233.356 194.199 234.07 192.99C234.565 192.165 234.73 191.396 234.675 190.626C234.62 189.857 234.345 189.197 233.795 188.537C233.301 187.878 232.586 187.328 231.762 186.833C230.442 186.064 229.178 185.789 228.079 185.954C226.979 186.119 225.99 186.778 225.33 187.988Z" fill="#1D1E1B"/>
<path d="M223.681 200.355L224.835 201.29L220.438 206.786L219.283 205.852L223.681 200.355Z" fill="#1D1E1B"/>
<path d="M206.367 208.875C207.301 207.996 208.291 207.501 209.335 207.336C210.379 207.171 211.424 207.281 212.413 207.721C213.403 208.16 214.392 208.82 215.272 209.809C216.151 210.799 216.756 211.843 217.085 212.888C217.415 213.932 217.47 214.976 217.195 215.966C216.921 216.955 216.316 217.89 215.381 218.769C214.447 219.648 213.403 220.143 212.248 220.363C211.149 220.528 210.05 220.363 209.06 219.758L209.94 218.219C210.654 218.604 211.424 218.714 212.193 218.549C212.963 218.384 213.623 218.054 214.227 217.505C214.887 216.9 215.326 216.186 215.491 215.471C215.656 214.756 215.601 213.987 215.272 213.217C214.942 212.448 214.502 211.733 213.842 210.964C212.798 209.864 211.699 209.205 210.599 208.985C209.445 208.765 208.401 209.15 207.411 210.029C206.752 210.634 206.367 211.239 206.202 211.953C206.037 212.668 206.092 213.382 206.367 214.152L204.718 214.921C204.278 213.767 204.223 212.668 204.498 211.623C204.828 210.689 205.432 209.754 206.367 208.875Z" fill="#1D1E1B"/>
<path d="M194.714 217.835C195.759 217.175 196.858 216.79 197.903 216.79C198.947 216.79 199.991 217.065 200.926 217.67C201.86 218.274 202.685 219.099 203.399 220.198C204.114 221.298 204.554 222.452 204.663 223.551C204.773 224.651 204.663 225.695 204.169 226.629C203.729 227.564 202.959 228.388 201.915 229.048C200.871 229.707 199.771 230.092 198.727 230.092C197.683 230.092 196.693 229.817 195.704 229.213C194.769 228.608 193.945 227.784 193.23 226.684C192.516 225.585 192.076 224.431 191.966 223.331C191.801 222.232 191.966 221.188 192.461 220.253C192.901 219.319 193.67 218.494 194.714 217.835ZM195.594 219.209C194.385 219.978 193.78 220.913 193.725 222.067C193.67 223.221 194 224.431 194.824 225.695C195.649 226.959 196.583 227.839 197.683 228.223C198.782 228.608 199.881 228.443 201.036 227.674C201.86 227.179 202.355 226.574 202.685 225.86C202.959 225.145 203.014 224.431 202.904 223.606C202.74 222.782 202.41 222.012 201.86 221.188C201.036 219.923 200.101 219.044 199.002 218.659C197.903 218.274 196.748 218.439 195.594 219.209Z" fill="#1D1E1B"/>
<path d="M177.345 226.849L180.973 235.699L181.138 235.644L183.941 242.46L182.347 243.119L175.916 227.509L177.345 226.849ZM181.083 224.98C182.182 224.541 183.227 224.431 184.216 224.65C185.205 224.87 186.14 225.365 186.909 226.135C187.679 226.904 188.338 227.893 188.833 229.048C189.328 230.202 189.548 231.356 189.493 232.456C189.493 233.555 189.163 234.544 188.613 235.369C188.064 236.193 187.239 236.853 186.195 237.293C185.095 237.733 184.051 237.842 183.062 237.623C182.072 237.403 181.193 236.908 180.423 236.138C179.654 235.369 179.049 234.38 178.554 233.225C178.06 232.071 177.84 230.917 177.84 229.817C177.84 228.718 178.115 227.729 178.609 226.904C179.159 226.08 179.984 225.42 181.083 224.98ZM181.523 226.519C180.698 226.849 180.093 227.344 179.709 227.948C179.324 228.553 179.159 229.323 179.159 230.147C179.159 230.972 179.379 231.851 179.764 232.731C180.148 233.665 180.588 234.38 181.193 234.984C181.742 235.589 182.402 235.974 183.062 236.138C183.776 236.303 184.546 236.248 185.315 235.919C186.14 235.589 186.744 235.094 187.129 234.435C187.514 233.775 187.679 233.06 187.679 232.236C187.624 231.411 187.459 230.587 187.074 229.707C186.689 228.828 186.25 228.058 185.7 227.454C185.15 226.849 184.491 226.464 183.776 226.244C183.117 226.135 182.347 226.19 181.523 226.519Z" fill="#1D1E1B"/>
<path d="M165.528 229.817C166.737 229.542 167.836 229.597 168.826 229.927C169.815 230.257 170.695 230.862 171.354 231.741C172.014 232.621 172.563 233.72 172.838 234.984C173.113 236.358 173.113 237.568 172.893 238.667C172.618 239.766 172.124 240.646 171.354 241.415C170.585 242.185 169.595 242.625 168.441 242.899C167.232 243.174 166.132 243.119 165.143 242.734C164.153 242.35 163.329 241.69 162.669 240.756C162.01 239.821 161.515 238.612 161.24 237.128L162.944 236.743L163.054 237.348C163.439 238.942 164.044 240.096 164.868 240.756C165.693 241.415 166.737 241.635 168.056 241.36C169.375 241.085 170.31 240.426 170.859 239.382C171.354 238.392 171.464 237.073 171.134 235.479C170.804 233.94 170.2 232.786 169.265 232.071C168.386 231.356 167.287 231.137 165.967 231.411C165.088 231.576 164.373 231.961 163.769 232.511C163.219 233.06 162.779 233.775 162.559 234.599L160.855 234.325C161.13 233.115 161.68 232.126 162.504 231.356C163.329 230.587 164.318 230.092 165.528 229.817ZM171.574 234.874L171.904 236.303L162.45 238.337L162.12 236.908L171.574 234.874Z" fill="#1D1E1B"/>
<path d="M148.761 243.394L148.706 244.878L140.406 244.658L140.461 243.174L148.761 243.394ZM140.736 231.961C141.451 231.851 142.165 231.796 142.825 231.851C143.539 231.906 144.144 232.071 144.694 232.346C145.243 232.621 145.628 233.06 145.903 233.61C146.123 234.105 146.233 234.545 146.233 235.039C146.233 235.534 146.233 236.084 146.233 236.688L145.903 248.286L144.199 248.231L144.529 236.688C144.529 236.139 144.529 235.699 144.529 235.369C144.529 235.039 144.474 234.709 144.309 234.435C144.034 233.885 143.594 233.555 142.99 233.445C142.385 233.335 141.616 233.335 140.681 233.445L140.736 231.961Z" fill="#1D1E1B"/>
<path d="M131.338 230.367C132.602 230.587 133.591 231.082 134.361 231.796C135.13 232.511 135.68 233.39 135.955 234.489C136.23 235.589 136.285 236.743 136.065 238.062C135.845 239.381 135.405 240.481 134.746 241.36C134.086 242.24 133.262 242.899 132.272 243.284C131.283 243.669 130.183 243.779 128.974 243.559C127.71 243.339 126.72 242.844 125.951 242.13C125.181 241.415 124.632 240.536 124.357 239.436C124.082 238.337 124.027 237.183 124.247 235.919C124.467 234.599 124.907 233.5 125.566 232.621C126.226 231.741 127.05 231.082 128.04 230.642C128.974 230.257 130.073 230.147 131.338 230.367ZM131.008 232.016C129.634 231.741 128.534 232.071 127.655 232.84C126.83 233.665 126.281 234.764 126.006 236.248C125.731 237.732 125.841 238.997 126.391 240.041C126.885 241.03 127.875 241.69 129.249 241.91C130.183 242.075 131.008 242.02 131.667 241.69C132.327 241.36 132.877 240.866 133.316 240.206C133.756 239.491 134.031 238.667 134.196 237.732C134.471 236.248 134.306 234.984 133.811 233.94C133.316 232.895 132.382 232.236 131.008 232.016Z" fill="#1D1E1B"/>
<path d="M113.748 225.805L106.712 241.14L105.118 240.426L109.405 231.027L101.71 234.215L99.6211 233.28L107.646 229.982L104.183 221.407L106.492 222.452L109.625 230.587L112.153 225.035L113.748 225.805Z" fill="#1D1E1B"/>
<path d="M93.85 214.592L90.2222 219.923C89.8375 220.528 89.5077 221.078 89.2878 221.627C89.0679 222.177 88.958 222.727 88.958 223.276C88.958 223.826 89.0679 224.321 89.3428 224.76C89.6176 225.2 90.0024 225.64 90.552 226.025C91.0467 226.354 91.5414 226.574 92.0911 226.684C92.5858 226.794 93.0805 226.739 93.5752 226.574C94.0699 226.409 94.5096 226.19 95.0043 225.805C95.4441 225.42 95.8838 224.925 96.2686 224.376L97.148 225.31C96.4335 226.409 95.609 227.179 94.7295 227.619C93.85 228.113 92.9706 228.278 92.0361 228.223C91.1017 228.168 90.2222 227.839 89.3977 227.234C88.7931 226.794 88.2984 226.354 87.9686 225.805C87.6388 225.31 87.4189 224.76 87.309 224.211C87.1991 223.661 87.1991 223.111 87.309 222.562C87.4189 222.012 87.5838 221.462 87.8037 220.913C88.0236 220.363 88.2984 219.868 88.6282 219.374L92.5308 213.602L93.85 214.592ZM101.435 219.758L94.2898 230.257L93.0255 229.378L94.7845 226.794L94.6196 226.684L100.006 218.769L101.435 219.758Z" fill="#1D1E1B"/>
<path d="M84.9996 206.457C85.8791 207.336 86.4837 208.27 86.7036 209.315C86.9235 210.359 86.8685 211.404 86.5387 212.448C86.2089 213.492 85.5493 214.482 84.6149 215.416C83.6804 216.351 82.691 217.065 81.6467 217.45C80.6023 217.835 79.5579 217.89 78.5136 217.67C77.4692 217.45 76.5348 216.9 75.6553 216.021C74.7209 215.141 74.1712 214.207 73.8964 213.162C73.6215 212.118 73.6765 211.074 74.0613 210.029C74.446 208.985 75.0507 207.996 75.9851 207.061C76.9195 206.127 77.9089 205.412 78.9533 205.027C79.9977 204.643 81.042 204.533 82.0864 204.753C83.1308 205.027 84.0652 205.577 84.9996 206.457ZM83.8453 207.611C82.8559 206.621 81.7566 206.237 80.6023 206.457C79.448 206.676 78.3487 207.281 77.3043 208.38C76.2599 209.48 75.6553 210.579 75.4904 211.733C75.3805 212.888 75.8202 213.932 76.8096 214.921C77.4692 215.581 78.1838 215.966 78.9533 216.076C79.6679 216.186 80.4374 216.076 81.152 215.746C81.8665 215.416 82.5811 214.866 83.2957 214.207C84.34 213.108 84.9447 212.008 85.1096 210.854C85.2195 209.645 84.8347 208.6 83.8453 207.611Z" fill="#1D1E1B"/>
<path d="M76.2609 197.277L68.0159 207.666L67.0265 206.237L73.4576 198.212L63.6186 201.29L62.7391 199.97L69.1702 191.89L59.3312 194.969L58.3418 193.539L70.9841 189.582L71.8086 190.846L65.2676 199.146L75.3815 196.013L76.2609 197.277Z" fill="#1D1E1B"/>
<path d="M61.1992 185.514L59.8251 186.119L56.9668 179.688L58.341 179.083L61.1992 185.514Z" fill="#1D1E1B"/>
<path d="M61.4748 166.276C61.8046 167.485 61.8046 168.639 61.5297 169.629C61.1999 170.618 60.6503 171.498 59.7708 172.212C58.8914 172.927 57.847 173.477 56.6377 173.806C55.3735 174.136 54.1642 174.191 53.0649 174.026C51.9655 173.861 51.0311 173.367 50.2616 172.707C49.4921 171.992 48.9424 171.058 48.6126 169.849C48.2828 168.584 48.2828 167.43 48.6126 166.386C48.9424 165.286 49.602 164.462 50.5914 163.802L51.5808 165.286C50.9212 165.781 50.4815 166.386 50.2616 167.1C50.0417 167.815 50.0417 168.584 50.2616 169.409C50.4815 170.288 50.9212 171.003 51.4709 171.498C52.0205 171.992 52.7351 172.267 53.5596 172.322C54.3841 172.432 55.2636 172.322 56.198 172.047C57.6821 171.608 58.7265 170.948 59.441 170.069C60.1556 169.189 60.3205 168.035 59.9357 166.716C59.7158 165.891 59.3311 165.232 58.7814 164.737C58.2317 164.242 57.5722 163.967 56.7477 163.857L56.8026 162.043C58.0119 162.208 59.0013 162.648 59.8258 163.363C60.5403 164.077 61.145 165.067 61.4748 166.276Z" fill="#1D1E1B"/>
<path d="M58.8367 151.82C58.9466 153.084 58.7817 154.183 58.287 155.118C57.7923 156.052 57.0778 156.822 56.1433 157.371C55.2089 157.921 54.0546 158.306 52.7354 158.416C51.4162 158.526 50.2069 158.416 49.1626 158.031C48.1182 157.646 47.2937 157.041 46.6341 156.217C45.9745 155.392 45.5898 154.348 45.4798 153.139C45.3699 151.875 45.5348 150.775 46.0295 149.841C46.5242 148.906 47.2388 148.137 48.1732 147.587C49.1076 147.038 50.2619 146.653 51.5811 146.543C52.9003 146.433 54.1096 146.543 55.1539 146.928C56.1983 147.312 57.0228 147.917 57.6824 148.742C58.342 149.511 58.7268 150.555 58.8367 151.82ZM57.1877 151.985C57.0778 150.555 56.4731 149.566 55.4837 149.016C54.4943 148.412 53.2301 148.192 51.746 148.357C50.207 148.522 49.0527 148.961 48.2282 149.731C47.4037 150.5 47.0189 151.6 47.1838 152.974C47.2937 153.908 47.5685 154.678 48.0632 155.228C48.5579 155.777 49.1626 156.217 49.9871 156.437C50.7566 156.657 51.6361 156.712 52.6255 156.657C54.1645 156.492 55.3188 156.052 56.1983 155.228C57.0778 154.403 57.3526 153.359 57.1877 151.985Z" fill="#1D1E1B"/>
<path d="M58.6714 132.196L49.1621 131.427V131.592L41.8516 130.987L42.0165 129.228L58.8363 130.602L58.6714 132.196ZM58.6714 136.374C58.5614 137.528 58.1767 138.518 57.5171 139.342C56.8575 140.112 56.033 140.716 54.9886 141.046C53.9442 141.376 52.7899 141.541 51.5257 141.431C50.2615 141.321 49.1621 140.991 48.1727 140.496C47.1833 139.947 46.4688 139.287 45.9191 138.408C45.4244 137.528 45.2045 136.539 45.2595 135.385C45.3694 134.175 45.6992 133.241 46.3588 132.471C47.0184 131.702 47.8429 131.152 48.8873 130.822C49.9317 130.493 51.086 130.383 52.3502 130.493C53.6144 130.602 54.7138 130.877 55.7032 131.372C56.6926 131.867 57.4071 132.526 57.9568 133.406C58.5614 134.23 58.7813 135.22 58.6714 136.374ZM57.0773 136.099C57.1323 135.22 56.9674 134.45 56.5826 133.845C56.1979 133.241 55.6482 132.746 54.8787 132.361C54.1091 131.977 53.2846 131.812 52.2952 131.702C51.3058 131.647 50.4264 131.702 49.6568 131.922C48.8873 132.142 48.2277 132.526 47.788 133.076C47.2933 133.626 47.0184 134.34 46.9635 135.22C46.9085 136.099 47.0734 136.869 47.4582 137.528C47.8429 138.188 48.4476 138.628 49.1621 139.012C49.8767 139.342 50.7562 139.562 51.6906 139.672C52.625 139.727 53.5045 139.672 54.329 139.452C55.1535 139.232 55.7581 138.847 56.2528 138.298C56.7475 137.693 57.0224 136.979 57.0773 136.099Z" fill="#1D1E1B"/>
<path d="M61.4202 120.324C61.0904 121.533 60.5407 122.468 59.8261 123.237C59.0566 123.952 58.1222 124.446 57.0778 124.666C55.9785 124.886 54.8242 124.831 53.505 124.501C52.1858 124.172 51.0864 123.622 50.207 122.852C49.3275 122.083 48.7778 121.258 48.503 120.214C48.2282 119.225 48.2282 118.125 48.503 116.916C48.8328 115.707 49.3825 114.772 50.152 114.058C50.9215 113.343 51.9109 112.903 53.0652 112.738C54.2195 112.574 55.4838 112.683 56.9129 113.123L56.4732 114.827L55.8685 114.662C54.2745 114.277 53.0103 114.278 52.0209 114.717C51.0315 115.157 50.3719 115.981 50.0421 117.246C49.7123 118.565 49.8772 119.664 50.5368 120.599C51.1964 121.533 52.3507 122.193 53.8897 122.632C55.4288 123.017 56.748 123.017 57.7374 122.522C58.7818 122.028 59.4414 121.148 59.8261 119.884C60.046 119.005 60.046 118.18 59.8261 117.411C59.6063 116.641 59.1665 115.981 58.5069 115.377L59.4963 114.003C60.4308 114.772 61.0904 115.707 61.4202 116.806C61.75 118.015 61.75 119.115 61.4202 120.324ZM54.1646 123.402L52.7904 123.017L55.2639 113.673L56.6381 114.058L54.1646 123.402Z" fill="#1D1E1B"/>
<path d="M224.725 90.2021C226.455 90.2021 227.858 88.7994 227.858 87.069C227.858 85.3386 226.455 83.9359 224.725 83.9359C222.995 83.9359 221.592 85.3386 221.592 87.069C221.592 88.7994 222.995 90.2021 224.725 90.2021Z" fill="#1D1E1B"/>
<path d="M61.3089 98.9967C63.0392 98.9967 64.442 97.5939 64.442 95.8636C64.442 94.1332 63.0392 92.7305 61.3089 92.7305C59.5785 92.7305 58.1758 94.1332 58.1758 95.8636C58.1758 97.5939 59.5785 98.9967 61.3089 98.9967Z" fill="#1D1E1B"/>
</svg>
