<svg width="131" height="80" viewBox="0 0 131 80" fill="none" xmlns="http://www.w3.org/2000/svg">
<g clip-path="url(#clip0_109_242)">
<path d="M29.8396 2.27113C19.3979 -2.65441 6.93471 1.80991 2.00577 12.2383C-2.92316 22.6666 1.54396 35.1139 11.9885 40.0366C22.4302 44.9592 34.8934 40.4978 39.8224 30.0665C44.7513 19.6382 40.2842 7.19088 29.8396 2.26823V2.27113ZM31.7256 24.2942C31.6269 24.329 23.4758 27.1919 22.9676 27.3572C21.6315 27.7923 20.7747 27.6502 19.9469 27.5109C19.3021 27.4036 18.6369 27.2934 17.783 27.4674C16.2756 27.7807 15.2329 28.4508 14.6781 29.4661C8.7994 24.8335 10.301 20.3112 10.5857 19.6034C11.1898 19.6266 13.8968 19.6121 14.9163 17.6076L18.3349 10.376C18.6834 9.63915 19.5664 9.32296 20.307 9.67106C21.0477 10.0192 21.3614 10.901 21.0128 11.6407L19.4909 14.8635C19.4618 14.9215 19.4734 14.9911 19.517 15.0404C19.5606 15.0897 19.6303 15.1042 19.6913 15.0839L24.2078 13.4653C24.5795 13.3319 24.9833 13.3522 25.3405 13.5204C25.6978 13.6887 25.9679 13.9874 26.1015 14.3587C26.3571 15.0723 26.0376 15.8556 25.358 16.1862L23.958 16.6881C23.8738 16.7171 23.8302 16.8099 23.8621 16.894C23.8941 16.9782 23.9841 17.0217 24.0684 16.9898L25.4683 16.4879C26.2032 16.311 26.9496 16.7142 27.2052 17.4278C27.4608 18.1414 27.1413 18.9246 26.4617 19.2553L25.0617 19.7571C24.9775 19.7861 24.9339 19.879 24.9658 19.9631C24.9949 20.0472 25.0878 20.0907 25.1721 20.0588L26.572 19.557C27.3069 19.38 28.0533 19.7832 28.3089 20.4968C28.5558 21.1814 28.2566 21.953 27.6148 22.2982L26.2177 22.7971C26.1335 22.8262 26.0899 22.919 26.1218 23.0031C26.1538 23.0872 26.2438 23.1307 26.3281 23.0988L27.7367 22.5941L30.7323 21.5124C31.502 21.2368 32.3501 21.6371 32.626 22.4058C32.9019 23.1745 32.5011 24.0215 31.7343 24.2971L31.7256 24.2942Z" fill="white"/>
<path d="M8.52157 73.5517C7.02497 73.5517 5.67778 73.2948 4.47756 72.7787C3.27734 72.2625 2.28777 71.5261 1.5113 70.5672C0.734832 69.6082 0.230246 68.4683 0 67.1497L3.15487 66.6727C3.47329 67.9448 4.13954 68.9355 5.15115 69.6425C6.16522 70.3495 7.34584 70.7042 8.69793 70.7042C9.53808 70.7042 10.3097 70.5721 11.0126 70.3054C11.7181 70.0412 12.2839 69.6596 12.7125 69.163C13.1412 68.6664 13.3567 68.072 13.3567 67.3772C13.3567 67.0005 13.2906 66.6678 13.1608 66.3791C13.031 66.0905 12.8522 65.836 12.6244 65.6208C12.3966 65.403 12.1222 65.2171 11.7989 65.0581C11.4756 64.8991 11.1204 64.7621 10.7359 64.6471L5.39609 63.0717C4.87437 62.9176 4.34529 62.717 3.80397 62.4724C3.26264 62.2277 2.77031 61.9048 2.31961 61.5036C1.87137 61.1049 1.5064 60.6083 1.22717 60.0138C0.947932 59.4218 0.808317 58.7002 0.808317 57.8537C0.808317 56.5719 1.13899 55.4857 1.80033 54.5953C2.46168 53.7048 3.35572 53.0296 4.48491 52.5722C5.61409 52.1147 6.878 51.8848 8.27663 51.8848C9.68505 51.9043 10.9465 52.1539 12.061 52.6358C13.1755 53.1177 14.1014 53.81 14.8387 54.7102C15.5759 55.6105 16.0854 56.7015 16.3646 57.9834L13.1241 58.5338C12.9795 57.7534 12.6709 57.0807 12.1982 56.5181C11.7254 55.9554 11.1474 55.52 10.4615 55.2166C9.77568 54.9133 9.0335 54.7567 8.23254 54.7469C7.46097 54.7274 6.75308 54.8423 6.11133 55.0943C5.46958 55.3438 4.95765 55.6961 4.57799 56.1487C4.19587 56.6012 4.00727 57.1223 4.00727 57.7094C4.00727 58.2965 4.17628 58.754 4.51431 59.1111C4.85233 59.4683 5.26873 59.7496 5.76596 59.9576C6.2632 60.1655 6.75798 60.3367 7.25032 60.4713L11.1008 61.555C11.5834 61.6896 12.1296 61.8706 12.7444 62.0981C13.3567 62.3256 13.9495 62.6412 14.5251 63.0448C15.0983 63.4484 15.5735 63.9866 15.9507 64.6569C16.3279 65.3272 16.5141 66.1663 16.5141 67.1791C16.5141 68.1918 16.301 69.1532 15.8772 69.9483C15.4535 70.7433 14.8705 71.4087 14.1332 71.942C13.3959 72.4778 12.5435 72.879 11.5785 73.148C10.6134 73.4171 9.59442 73.5517 8.52402 73.5517H8.52157Z" fill="white"/>
<path d="M19.0156 73.1187V51.8701H22.0407V73.1187H19.0156Z" fill="white"/>
<path d="M29.928 73.552C28.7694 73.552 27.7994 73.3368 27.018 72.9087C26.2367 72.4805 25.6463 71.9106 25.2446 71.2036C24.8454 70.4941 24.6445 69.7162 24.6445 68.8698C24.6445 68.0796 24.7841 67.3849 25.0634 66.788C25.3426 66.1911 25.759 65.6823 26.3077 65.264C26.8588 64.8456 27.5324 64.5056 28.3334 64.2438C29.029 64.0408 29.8153 63.8622 30.6922 63.7081C31.5691 63.554 32.495 63.4097 33.4625 63.2751C34.4325 63.1406 35.3951 63.006 36.3504 62.8715L35.2506 63.4781C35.2702 62.255 35.013 61.345 34.4765 60.753C33.9401 60.161 33.0216 59.865 31.7185 59.865C30.8979 59.865 30.146 60.0558 29.4601 60.4349C28.7743 60.8166 28.2966 61.4453 28.0272 62.321L25.2054 61.4551C25.59 60.1169 26.3273 59.0503 27.4124 58.2602C28.4975 57.47 29.9426 57.0762 31.7479 57.0762C33.1465 57.0762 34.3639 57.3135 35.4024 57.7905C36.4385 58.2675 37.2003 59.021 37.6828 60.0533C37.9327 60.5646 38.087 61.1028 38.1458 61.6728C38.2046 62.2403 38.2315 62.8543 38.2315 63.5075V73.119H35.5543V69.5499L36.076 70.0122C35.4294 71.2085 34.6064 72.0965 33.6094 72.6787C32.6101 73.2609 31.3829 73.552 29.9255 73.552H29.928ZM30.4644 71.0813C31.3241 71.0813 32.0614 70.9296 32.6787 70.6262C33.2959 70.3229 33.7931 69.9339 34.1704 69.4618C34.5476 68.9897 34.7925 68.498 34.9076 67.9867C35.0718 67.5243 35.1648 67.0033 35.1893 66.4259C35.2138 65.8486 35.2261 65.3863 35.2261 65.0389L36.2107 65.4009C35.2555 65.5453 34.3884 65.6749 33.6045 65.7899C32.8207 65.9049 32.1153 66.0199 31.4833 66.1299C30.8514 66.24 30.2905 66.3746 29.7981 66.5262C29.3842 66.6706 29.0143 66.8443 28.691 67.0473C28.3677 67.2504 28.1129 67.495 27.9243 67.7836C27.7357 68.0723 27.6426 68.4246 27.6426 68.838C27.6426 69.2514 27.7431 69.6159 27.9464 69.9584C28.1497 70.3009 28.4583 70.5724 28.8722 70.7755C29.2862 70.9785 29.8177 71.0788 30.4644 71.0788V71.0813Z" fill="white"/>
<path d="M50.0745 59.9359V57.5067H45.428V53.1719H42.3882V57.5092H39.3926V59.9384H42.3882V66.9764C42.3882 67.8252 42.4005 68.5836 42.425 69.2539C42.4495 69.9242 42.6307 70.5822 42.9687 71.228C43.346 71.9497 43.9044 72.4806 44.6466 72.8181C45.3888 73.1557 46.2338 73.3392 47.1793 73.3661C48.1248 73.3955 49.0899 73.3123 50.0745 73.1215V70.5627C49.0507 70.707 48.1615 70.7388 47.4047 70.6556C46.6478 70.5749 46.0942 70.2348 45.7464 69.6355C45.5627 69.3175 45.4647 68.9261 45.45 68.4637C45.4353 68.0014 45.428 67.4558 45.428 66.8296V59.9359H50.0745Z" fill="white"/>
<path d="M64.2851 66.1666H65.789C65.9041 64.2977 65.6861 62.6831 65.1301 61.3254C64.5741 59.9677 63.7388 58.9182 62.6195 58.1819C61.5001 57.4456 60.1455 57.0762 58.5534 57.0762C56.9613 57.0762 55.6925 57.4187 54.5437 58.1036C53.3949 58.7886 52.5009 59.7573 51.8591 61.0098C51.2174 62.2623 50.8965 63.7424 50.8965 65.4474C50.8965 67.0571 51.2223 68.4711 51.8738 69.6893C52.5254 70.9076 53.4365 71.8567 54.6098 72.5368C55.7831 73.2169 57.145 73.5569 58.6979 73.5569C60.2509 73.5569 61.5882 73.1729 62.8228 72.4072C64.0573 71.6415 64.9783 70.5602 65.5882 69.1609L62.6219 68.2215C62.2349 69.0215 61.6985 69.6355 61.0077 70.0636C60.317 70.4917 59.4989 70.707 58.5534 70.707C57.1156 70.707 56.0158 70.2373 55.254 69.2979C54.6245 68.5224 54.2596 67.4754 54.1493 66.1691H64.2851V66.1666ZM55.254 61.1811C56.0158 60.227 57.1548 59.75 58.6685 59.75C60.0378 59.75 61.0592 60.183 61.7303 61.0514C62.2349 61.7046 62.5558 62.6244 62.6905 63.8133H54.2179C54.3771 62.7296 54.72 61.8514 55.254 61.1835V61.1811Z" fill="white"/>
<path d="M68.1621 73.1191V57.5068H70.854V61.2937L70.4768 60.802C70.6703 60.3005 70.9202 59.8406 71.2288 59.4222C71.5374 59.0039 71.895 58.659 72.2992 58.3899C72.6936 58.1012 73.1369 57.8762 73.6243 57.7172C74.1118 57.5582 74.6115 57.4627 75.1234 57.4285C75.6353 57.3943 76.1277 57.4212 76.6004 57.5068V60.3396C76.0885 60.2051 75.5227 60.1659 74.9005 60.2246C74.2783 60.2833 73.7076 60.479 73.1859 60.8166C72.6936 61.1347 72.3065 61.5212 72.02 61.9737C71.7358 62.4263 71.5301 62.9302 71.4052 63.4831C71.2802 64.0384 71.2166 64.6231 71.2166 65.2396V73.1167H68.1621V73.1191Z" fill="white"/>
<path d="M76.7539 73.0503V69.8555H79.9529V73.0503H76.7539Z" fill="white"/>
<path d="M88.0725 73.4856C86.9139 73.4856 85.9439 73.2703 85.1626 72.8422C84.3812 72.4141 83.7909 71.8442 83.3892 71.1372C82.9899 70.4277 82.7891 69.6498 82.7891 68.8034C82.7891 68.0132 82.9287 67.3185 83.2079 66.7216C83.4871 66.1247 83.9035 65.6159 84.4522 65.1975C85.0033 64.7792 85.6769 64.4392 86.4779 64.1774C87.1735 63.9744 87.9598 63.7958 88.8367 63.6417C89.7136 63.4876 90.6395 63.3432 91.607 63.2087C92.577 63.0742 93.5396 62.9396 94.4949 62.8051L93.3951 63.4117C93.4147 62.1886 93.1575 61.2786 92.6211 60.6866C92.0847 60.0946 91.1661 59.7986 89.863 59.7986C89.0425 59.7986 88.2905 59.9894 87.6046 60.3685C86.9188 60.7502 86.4412 61.3789 86.1717 62.2546L83.35 61.3887C83.7345 60.0505 84.4718 58.9839 85.5569 58.1938C86.642 57.4036 88.0872 57.0098 89.8924 57.0098C91.291 57.0098 92.5084 57.2471 93.547 57.7241C94.5831 58.2011 95.3448 58.9546 95.8274 59.9869C96.0772 60.4982 96.2315 61.0364 96.2903 61.6064C96.3491 62.1739 96.376 62.7879 96.376 63.4411V73.0526H93.6988V69.4835L94.2206 69.9458C93.5739 71.1421 92.7509 72.0301 91.754 72.6123C90.7546 73.1945 89.5274 73.4856 88.07 73.4856H88.0725ZM88.6089 71.0149C89.4687 71.0149 90.2059 70.8632 90.8232 70.5598C91.4404 70.2565 91.9377 69.8675 92.3149 69.3954C92.6921 68.9233 92.937 68.4316 93.0522 67.9203C93.2163 67.4579 93.3094 66.9369 93.3339 66.3595C93.3584 65.7822 93.3706 65.3199 93.3706 64.9725L94.3553 65.3345C93.4 65.4789 92.5329 65.6085 91.7491 65.7235C90.9677 65.8385 90.2598 65.9535 89.6279 66.0635C88.9959 66.1736 88.435 66.3082 87.9427 66.4598C87.5287 66.6042 87.1588 66.7779 86.8355 66.9809C86.5122 67.1839 86.2575 67.4286 86.0689 67.7172C85.8802 68.0059 85.7872 68.3582 85.7872 68.7716C85.7872 69.185 85.8876 69.5495 86.0909 69.892C86.2942 70.2345 86.6028 70.506 87.0168 70.7091C87.4307 70.9121 87.9623 71.0124 88.6089 71.0124V71.0149Z" fill="white"/>
<path d="M99.2598 79.9899V57.4398H101.952V68.6708H102.3V79.9874H99.2598V79.9899ZM106.613 73.4851C105.116 73.4851 103.862 73.1206 102.851 72.3941C101.839 71.6675 101.07 70.6817 100.551 69.4389C100.029 68.1962 99.7693 66.7945 99.7693 65.2337C99.7693 63.673 100.026 62.2713 100.543 61.0285C101.06 59.7858 101.822 58.8049 102.831 58.0881C103.84 57.3713 105.082 57.0117 106.559 57.0117C108.036 57.0117 109.293 57.3713 110.358 58.0881C111.424 58.8049 112.247 59.7834 112.825 61.0212C113.403 62.259 113.694 63.6632 113.694 65.2337C113.694 66.8043 113.408 68.1987 112.832 69.4463C112.259 70.6939 111.443 71.6798 110.385 72.4014C109.329 73.1231 108.073 73.4851 106.615 73.4851H106.613ZM106.194 70.7526C107.159 70.7526 107.958 70.508 108.59 70.0163C109.222 69.5246 109.694 68.8616 110.008 68.0299C110.321 67.1957 110.478 66.2636 110.478 65.2337C110.478 64.2039 110.321 63.2865 110.008 62.4596C109.694 61.6303 109.214 60.9698 108.568 60.4806C107.921 59.9889 107.095 59.7442 106.094 59.7442C105.148 59.7442 104.369 59.9766 103.757 60.439C103.145 60.9013 102.691 61.5472 102.397 62.3765C102.104 63.2058 101.957 64.1598 101.957 65.2386C101.957 66.3175 102.101 67.2715 102.39 68.1008C102.679 68.9301 103.137 69.5808 103.764 70.053C104.391 70.5251 105.202 70.7599 106.197 70.7599L106.194 70.7526Z" fill="white"/>
<path d="M115.988 79.9899V57.4398H118.68V68.6708H119.028V79.9874H115.988V79.9899ZM123.341 73.4851C121.845 73.4851 120.591 73.1206 119.579 72.3941C118.565 71.6675 117.798 70.6817 117.279 69.4389C116.757 68.1962 116.498 66.7945 116.498 65.2337C116.498 63.673 116.755 62.2713 117.272 61.0285C117.789 59.7858 118.55 58.8049 119.56 58.0881C120.569 57.3713 121.811 57.0117 123.288 57.0117C124.765 57.0117 126.021 57.3713 127.087 58.0881C128.152 58.8049 128.975 59.7834 129.553 61.0212C130.131 62.259 130.423 63.6632 130.423 65.2337C130.423 66.8043 130.136 68.1987 129.561 69.4463C128.987 70.6939 128.172 71.6798 127.114 72.4014C126.058 73.1231 124.801 73.4851 123.344 73.4851H123.341ZM122.923 70.7526C123.888 70.7526 124.686 70.508 125.318 70.0163C125.95 69.5246 126.423 68.8616 126.736 68.0299C127.05 67.1957 127.207 66.2636 127.207 65.2337C127.207 64.2039 127.05 63.2865 126.736 62.4596C126.423 61.6303 125.943 60.9698 125.296 60.4806C124.649 59.9889 123.824 59.7442 122.822 59.7442C121.877 59.7442 121.098 59.9766 120.485 60.439C119.873 60.9013 119.42 61.5472 119.126 62.3765C118.832 63.2058 118.685 64.1598 118.685 65.2386C118.685 66.3175 118.83 67.2715 119.119 68.1008C119.408 68.9301 119.866 69.5808 120.493 70.053C121.12 70.5251 121.931 70.7599 122.925 70.7599L122.923 70.7526Z" fill="white"/>
</g>
<defs>
<clipPath id="clip0_109_242">
<rect width="130.422" height="79.7234" fill="white" transform="translate(0 0.266602)"/>
</clipPath>
</defs>
</svg>
